<svg width="522" height="145" viewBox="0 0 522 145" fill="none" xmlns="http://www.w3.org/2000/svg">
<path d="M457.349 78.2803H479.141L521.093 144.328H499.205L457.349 78.2803ZM492.485 91.7203L499.781 78.2803H520.805L502.565 107.656L492.485 91.7203ZM475.397 114.376L485.381 130.216L477.989 144.328H456.965L475.397 114.376Z" fill="#3542FF"/>
<path d="M399.648 78.2803H453.696V93.6403H399.648V78.2803ZM417.024 97.4803H436.224V144.328H417.024V97.4803Z" fill="#3542FF"/>
<path d="M345.898 73H363.658V144.328H345.898V73ZM373.642 121.192C373.642 117.8 373.61 115.56 373.546 114.472C373.418 112.68 373.258 111.496 373.066 110.92C372.81 110.28 372.362 109.896 371.722 109.768C371.082 109.576 370.058 109.48 368.65 109.48H367.69V97.768C370.25 95.72 373.514 94.696 377.482 94.696C383.242 94.696 387.114 96.456 389.098 99.976C389.994 101.512 390.602 103.4 390.922 105.64C391.242 107.816 391.402 110.504 391.402 113.704V144.328H373.642V121.192Z" fill="black"/>
<path d="M299.266 95.3682H308.29V81.1602H326.05V95.3682H336.802V108.904H299.266V95.3682ZM308.29 112.744H326.05V144.328H308.29V112.744Z" fill="black"/>
<path d="M273.082 113.992C273.082 112.328 273.018 111.144 272.89 110.44C272.762 109.736 272.378 109.224 271.738 108.904C271.162 108.584 270.074 108.36 268.474 108.232C267.514 108.168 265.434 108.136 262.234 108.136C259.162 108.136 256.314 108.264 253.69 108.52L248.602 108.808V96.3281C254.618 95.1761 261.114 94.6001 268.09 94.6001C273.466 94.6001 277.658 94.9841 280.666 95.7521C283.738 96.5201 286.042 97.7361 287.578 99.4001C288.922 100.936 289.786 102.888 290.17 105.256C290.618 107.624 290.842 110.92 290.842 115.144V144.328H273.082V113.992ZM258.874 145C254.458 145 251.194 143.784 249.082 141.352C246.97 138.856 245.914 135.112 245.914 130.12C245.914 127.048 246.138 124.584 246.586 122.728C247.034 120.808 247.802 119.304 248.89 118.216C249.978 117.064 251.482 116.264 253.402 115.816C255.322 115.304 257.85 115.048 260.986 115.048L269.05 115.24V123.784H268.09C266.618 123.784 265.658 123.816 265.21 123.88C263.93 123.944 263.258 124.552 263.194 125.704C263.13 126.088 263.098 126.888 263.098 128.104C263.098 129.064 263.13 129.8 263.194 130.312C263.322 130.824 263.514 131.24 263.77 131.56C264.09 132.008 264.57 132.264 265.21 132.328C266.106 132.456 267.066 132.52 268.09 132.52H269.05V142.312C267.642 143.4 266.138 144.104 264.538 144.424C263.002 144.808 261.114 145 258.874 145Z" fill="black"/>
<path d="M185 78.2803H204.2V144.328H185V78.2803ZM208.232 109.096H210.536C212.584 109.096 214.088 109.032 215.048 108.904C216.072 108.712 216.872 108.328 217.448 107.752C218.024 107.24 218.376 106.504 218.504 105.544C218.696 104.52 218.792 103.016 218.792 101.032C218.792 99.0483 218.696 97.5763 218.504 96.6163C218.376 95.5923 218.024 94.7923 217.448 94.2163C216.872 93.7043 216.072 93.3843 215.048 93.2563C214.024 93.0643 212.52 92.9683 210.536 92.9683H208.232V78.2803H216.2C220.936 78.2803 224.776 78.7603 227.72 79.7203C230.728 80.6163 233 82.0243 234.536 83.9443C236.008 85.7363 237 88.0083 237.512 90.7603C238.024 93.4483 238.28 96.8723 238.28 101.032C238.28 105 238.024 108.296 237.512 110.92C237.064 113.544 236.136 115.752 234.728 117.544C233.128 119.592 230.824 121.16 227.816 122.248C224.872 123.272 221 123.784 216.2 123.784H208.232V109.096Z" fill="black"/>
<path d="M147 117.845V144.845H65V117.845H147ZM71.6324 137.601H140.368V125.089H71.6324V137.601Z" fill="black"/>
<path d="M147 87.8447V114.845H101V87.8447H147ZM107.658 107.601H140.342V95.0886H107.658V107.601Z" fill="black"/>
<path d="M52.0186 13.0049H109.258L122.262 29.2598V35.7627H102.756V42.2646H112.509V68.2734H86.5V42.2646H96.2529V35.7627H52.0186V143.896H26.0088V35.7627H19.5068V45.5156H0V13.0049H26.0088V0H52.0186V13.0049ZM92.3115 48V63H107.312V48H92.3115Z" fill="#1F1F1F"/>
</svg>
